<svg xmlns="http://www.w3.org/2000/svg" xmlns:xlink="http://www.w3.org/1999/xlink" viewBox="0 0 200 98"><defs><style>.cls-1{fill:url(#未命名的渐变_348);}.cls-2{fill:#e6e6e6;opacity:0.3;}</style><linearGradient id="未命名的渐变_348" x1="144.39" y1="125.88" x2="55.61" y2="-27.88" gradientUnits="userSpaceOnUse"><stop offset="0" stop-color="#255daa"/><stop offset="0.87" stop-color="#26ade2"/><stop offset="1" stop-color="#26b9ea"/></linearGradient></defs><title>资源 2</title><g id="图层_2" data-name="图层 2"><g id="图层_1-2" data-name="图层 1"><rect class="cls-1" width="200" height="98" rx="10" ry="10"/><path class="cls-2" d="M71.21,47.83A18.77,18.77,0,0,0,52.45,29.05h0c-.47,0-.94,0-1.4.07H34.48v0H26V98h9.52V66.55H51a8,8,0,0,0,1.47.06A18.76,18.76,0,0,0,71.21,47.84ZM51,56.88H35.52V38.73H51a9.45,9.45,0,0,1,8.67,9A9.61,9.61,0,0,1,51,56.87ZM94.37,81.05a5.39,5.39,0,0,0-1.13-1.31l-3.41-9.29a4.75,4.75,0,0,0-3.71-2.69H68.19a4.72,4.72,0,0,0-3.7,2.69l-3.42,9.29a5.63,5.63,0,0,0-1.13,1.31c-.3.61-.63,1.16-.63,5.28s.79,5.44,1.74,5.94l.75.43v3.73c0,1.21.28,1.57,1.41,1.57h2.54c1.13,0,1.89,0,1.89-1.21V93.16h19v3.63c0,1.21.76,1.21,1.89,1.21H91.1c1.13,0,1.41-.36,1.41-1.57V92.7l.75-.43c.95-.5,1.74-1.92,1.74-6s-.33-4.66-.63-5.27Zm-28.75-2.4c.14-.52,1.09-4.65,1.51-6.07.18-.49,1.3-2,2.61-1.88H84.58c1.3-.09,2.43,1.39,2.6,1.88.42,1.42,1.37,5.54,1.51,6.07s-.39.57-.39.57H66s-.56,0-.39-.57ZM66,88.74A2.78,2.78,0,1,1,68.71,86,2.76,2.76,0,0,1,66,88.74Zm22.42,0A2.78,2.78,0,1,1,91.14,86,2.76,2.76,0,0,1,88.41,88.74Z"/></g></g></svg>