<?xml version="1.0" standalone="no"?><!DOCTYPE svg PUBLIC "-//W3C//DTD SVG 1.1//EN" "http://www.w3.org/Graphics/SVG/1.1/DTD/svg11.dtd"><svg t="1602388591841" class="icon" viewBox="0 0 1024 1024" version="1.1" xmlns="http://www.w3.org/2000/svg" p-id="13405" xmlns:xlink="http://www.w3.org/1999/xlink" width="200" height="200"><defs><style type="text/css"></style></defs><path d="M512 63.9c-83.8 0-379.2 34.5-379.2 379.2V581H98.3c-19-0.3-34.7 14.9-35 34-0.3 19 14.9 34.7 34 35h828.3c19 0.3 34.7-14.9 35-34 0.3-19-14.9-34.7-34-35h-35.5V443.1c0-137.9-68.9-310.2-206.8-310.2 0.1-0.1-34.4-69-172.3-69z m172.4 206.8s103.4 95.1 103.4 310.2h-72.1c-7.1-20-26.1-34.5-48.5-34.5s-41.4 14.4-48.5 34.5H405.4c-7.1-20-26.1-34.5-48.5-34.5-22.5 0-41.4 14.4-48.5 34.5h-72.1c-0.1-241.3 344.6-68.9 448.1-310.2zM172.5 718.8c12 12.2 25 21 36.9 26.7 33.4 82.2 130.9 214.6 302.6 214.6s269.3-132.4 302.6-214.6c11.9-5.7 24.9-14.5 36.9-26.7H750.9c-16.6 39.7-83.5 172.4-238.9 172.4S289.7 758.5 273.1 718.8H172.5z" p-id="13406" fill="#8a8a8a"></path></svg>