<?xml version="1.0" encoding="utf-8"?>
<!-- Generator: Adobe Illustrator 23.0.0, SVG Export Plug-In . SVG Version: 6.00 Build 0)  -->
<svg version="1.1" id="图层_1" xmlns="http://www.w3.org/2000/svg" xmlns:xlink="http://www.w3.org/1999/xlink" x="0px" y="0px"
	 viewBox="0 0 30 200" style="enable-background:new 0 0 30 200;" xml:space="preserve">
<style type="text/css">
	.st0{fill:#CACFD9;}
	.st1{fill:#FFFFFF;}
</style>
<path class="st0" d="M30.3,1.5l-24,14.1C2.7,17.8,0.4,21.7,0.4,26v148.2c0,4.2,2.2,8.1,5.9,10.3l24,14.1V1.5z"/>
<path class="st1" d="M12.6,99.7l10-10c0.8-0.9,0.8-2.3-0.1-3.2c-0.9-0.8-2.2-0.8-3.1,0L7.8,98.1c-0.9,0.9-0.9,2.3,0,3.2l11.6,11.6
	c0.9,0.8,2.3,0.8,3.2-0.1c0.8-0.9,0.8-2.2,0-3.1L12.6,99.7L12.6,99.7z"/>
</svg>
