<?xml version="1.0" encoding="utf-8"?>
<!-- Generator: Adobe Illustrator 23.0.0, SVG Export Plug-In . SVG Version: 6.00 Build 0)  -->
<svg version="1.1" id="图层_1" xmlns="http://www.w3.org/2000/svg" xmlns:xlink="http://www.w3.org/1999/xlink" x="0px" y="0px"
	 viewBox="0 0 30 200" style="enable-background:new 0 0 30 200;" xml:space="preserve">
<style type="text/css">
	.st0{fill:#CACFD9;}
	.st1{fill:#FFFFFF;}
</style>
<path class="st0" d="M0.4,198.6l24-14.1c3.6-2.1,5.9-6.1,5.9-10.3V26c0-4.2-2.2-8.1-5.9-10.3L0.4,1.5L0.4,198.6z"/>
<path class="st1" d="M18.2,99.7l-10,10c-0.8,0.9-0.8,2.2,0,3.1c0.8,0.9,2.3,1,3.2,0.1l11.6-11.6c0.9-0.9,0.9-2.3,0-3.2L11.4,86.5
	c-0.9-0.8-2.2-0.8-3.1,0c-0.9,0.8-1,2.3-0.1,3.2L18.2,99.7L18.2,99.7z"/>
</svg>
